<?xml version="1.0" encoding="utf-8"?>
<svg height="24px" viewBox="0 -960 960 960" width="24px" xmlns="http://www.w3.org/2000/svg">
  <defs/>
  <path d="M160-120v-80h640v80H160Zm160-160q-66 0-113-47t-47-113v-400h640q33 0 56.5 23.5T880-760v120q0 33-23.5 56.5T800-560h-80v120q0 66-47 113t-113 47H320Zm0-80h240q33 0 56.5-23.5T640-440v-320H240v320q0 33 23.5 56.5T320-360Zm400-280h80v-120h-80v120ZM320-360h-80 400-320Z"/>
  <path d="M 50.592 -882.156 L 936.817 -164.384 L 884.981 -100.383 L -1.245 -818.155 L 50.592 -882.156 Z" style="transform-origin: 453.364px -466.251px;"/>
</svg>