<svg width="311" height="407" viewBox="0 0 311 407" fill="none" xmlns="http://www.w3.org/2000/svg">
<path d="M254.293 378.28C251.832 396.563 233.943 410.845 216.165 405.914C190.834 398.934 161.505 388.049 135.115 386.02C131.636 385.753 94.6689 382.949 94.6689 382.949C88.1298 382.484 81.9922 379.626 77.4251 374.923L7.73205 303.149C0.115629 295.307 -1.94602 283.61 2.52944 273.636C2.52944 273.636 45.6238 178.92 47.2244 173.994C48.8249 169.068 54.6988 126.109 58.1796 103.031C59.1023 96.9146 62.1214 91.3081 66.7197 87.1715L149.164 13.003C160.635 2.68465 178.439 4.21372 187.981 16.3367L257.239 104.321C261.157 109.301 263.166 115.489 263.195 121.825C263.274 138.495 264.65 172.718 273.865 194.761C282.83 216.202 299.284 239.358 307.883 250.752C311.183 255.126 311.688 261.039 308.9 265.756C302.832 276.032 290.841 295.762 273.865 321.076C262.162 338.53 256.739 360.106 254.293 378.28Z" fill="#0C0C0C"/>
<path d="M84.8369 380.554C149.773 248.902 81.2788 191.972 43.0287 168.399" stroke="white" stroke-width="12"/>
<path d="M272.974 336.077C231.611 239.562 171.122 238.228 108.854 253.35" stroke="white" stroke-width="12"/>
<path d="M172.901 246.678C111.079 91.8985 220.936 93.2329 182.241 2.5001" stroke="white" stroke-width="12"/>
</svg>
